<svg id="Layer_3" height="512" viewBox="0 0 64 64" width="512" xmlns="http://www.w3.org/2000/svg" data-name="Layer 3"><path d="m4 30h56v28h-56z" fill="#d6a67f"/><path d="m30 34h26v16h-26z" fill="#f2f2f2"/><path d="m50 42 3-8h-4l-3 8z" fill="#3b5892"/><path d="m34 34h4v8h-4z" fill="#3b5892"/><path d="m38 34h4v8h-4z" fill="#f0ae42"/><path d="m30 42h26v4h-26z" fill="#976947"/><path d="m62 26-5-10h-50l-5 10z" fill="#7f563b"/><path d="m27 18v-16h12a2 2 0 0 1 2 2v14z" fill="#f0ae42"/><path d="m27 2v16h-2a2 2 0 0 0 -2 2v-15a3 3 0 0 1 3-3z" fill="#d5883e"/><path d="m2 26h60a0 0 0 0 1 0 0v2a2 2 0 0 1 -2 2h-56a2 2 0 0 1 -2-2v-2a0 0 0 0 1 0 0z" fill="#976947"/><path d="m25 18h16a0 0 0 0 1 0 0v4a0 0 0 0 1 0 0h-16a2 2 0 0 1 -2-2 2 2 0 0 1 2-2z" fill="#fbe1ca"/><path d="m31 6h6v6h-6z" fill="#f9d266"/><path d="m2 58h60v4h-60z" fill="#674025"/><path d="m8 58v-12a8 8 0 0 1 8-8 8 8 0 0 1 8 8v12" fill="#976947"/><path d="m9 30v4h14v-4" fill="#674025"/><path d="m16 38a8.047 8.047 0 0 0 -1 .069v19.931h2v-19.931a8.047 8.047 0 0 0 -1-.069z" fill="#774e32"/></svg>